<?xml version="1.0" encoding="utf-8"?>
<!-- Generator: Adobe Illustrator 26.4.1, SVG Export Plug-In . SVG Version: 6.00 Build 0)  -->
<svg version="1.1" id="Calque_1" xmlns="http://www.w3.org/2000/svg" xmlns:xlink="http://www.w3.org/1999/xlink" x="0px" y="0px"
	 viewBox="0 0 52.43 65.15" style="enable-background:new 0 0 52.43 65.15;" xml:space="preserve">
<style type="text/css">
	.st0{fill:#000000;}
	.st1{fill:#EF8187;}
</style>
<g id="Groupe_5940" transform="translate(0.213 -0.307)">
	<path id="Tracé_1" class="st0" d="M33.05,43.4c-1.73-0.13-3.31,0.97-3.79,2.63c-0.12,0.44,0.13,0.89,0.57,1.02
		c0.02,0.01,0.05,0.01,0.07,0.02c0.09,0,0.13,0.04,0.21,0.04c0.39,0,0.73-0.26,0.82-0.65c0.24-1.17,1.38-1.92,2.54-1.68
		c0.85,0.17,1.51,0.83,1.68,1.68c0.11,0.46,0.57,0.75,1.03,0.65s0.75-0.57,0.65-1.03l0,0C36.37,44.4,34.79,43.28,33.05,43.4"/>
	<path id="Tracé_2" class="st0" d="M13.45,47.02c0.09,0,0.13,0.04,0.22,0.04c0.39,0,0.73-0.26,0.82-0.65
		c0.27-0.96,1.12-1.65,2.11-1.72c1,0.07,1.84,0.76,2.11,1.72c0.11,0.46,0.57,0.75,1.03,0.65s0.75-0.57,0.65-1.03l0,0
		c-0.48-1.67-2.06-2.77-3.79-2.63c-1.73-0.13-3.31,0.97-3.79,2.63C12.7,46.48,12.99,46.92,13.45,47.02
		C13.44,47.02,13.44,47.02,13.45,47.02"/>
	<path id="Tracé_3" class="st0" d="M35.81,53.14c-0.74,0-1.46,0.17-2.11,0.52c-2.66-1.63-5.76-2.41-8.88-2.24
		c-3.12-0.15-6.2,0.63-8.88,2.24c-0.65-0.34-1.38-0.52-2.11-0.52c-1.48,0.01-2.86,0.73-3.71,1.94c-1.28,1.81-1.04,4.28,0.56,5.82
		c0.32,0.33,0.84,0.35,1.18,0.03c0.01-0.01,0.02-0.02,0.03-0.03c0.33-0.32,0.35-0.84,0.03-1.18c-0.01-0.01-0.02-0.02-0.03-0.03
		c-1-0.95-1.15-2.5-0.34-3.62c0.52-0.75,1.37-1.19,2.28-1.21c0.59-0.01,1.17,0.19,1.64,0.56h0.04c0.04,0,0.04,0.04,0.09,0.04
		s0.04,0.04,0.09,0.04s0.04,0,0.09,0.04c0.04,0,0.04,0,0.09,0.04h0.43c0.04,0,0.04,0,0.09-0.04c0.04,0,0.04-0.04,0.09-0.04
		s0.04-0.04,0.09-0.04h0.04c4.95-3.62,11.68-3.62,16.63,0c0.09,0.04,0.13,0.09,0.22,0.09h0.04c0.09,0,0.13,0.04,0.22,0.04h0.04
		c0.12,0,0.24-0.03,0.35-0.09l0.04-0.04c0.04,0,0.04-0.04,0.09-0.04c0.47-0.36,1.05-0.55,1.64-0.56c0.72,0.01,1.41,0.28,1.94,0.78
		c0.56,0.52,0.87,1.26,0.86,2.03c0,0.76-0.31,1.5-0.86,2.03c-0.33,0.32-0.35,0.84-0.03,1.18c0.01,0.01,0.02,0.02,0.03,0.03
		c0.32,0.33,0.84,0.35,1.18,0.03c0.01-0.01,0.02-0.02,0.03-0.03c0.89-0.84,1.38-2.01,1.38-3.23c0.01-1.22-0.49-2.4-1.38-3.23
		C38.15,53.58,37,53.12,35.81,53.14"/>
	<path id="Tracé_4" class="st0" d="M15.86,56.84c-0.4-0.3-0.88-0.47-1.38-0.47c-0.76,0.01-1.48,0.38-1.94,0.99
		c-0.26,0.39-0.17,0.93,0.22,1.21c0.16,0.1,0.33,0.15,0.52,0.17c0.27-0.01,0.52-0.13,0.69-0.35c0.13-0.17,0.13-0.65,0.34-0.65
		c0.17,0,0.47,0.43,0.52,0.52c0.37,0.29,0.9,0.22,1.18-0.14c0.01-0.01,0.02-0.02,0.02-0.03C16.33,57.7,16.26,57.15,15.86,56.84
		C15.86,56.85,15.86,56.84,15.86,56.84"/>
	<path id="Tracé_5" class="st0" d="M35.21,56.41c-0.5,0-0.99,0.17-1.38,0.47c-0.39,0.28-0.48,0.82-0.2,1.2s0.82,0.48,1.2,0.2
		c0.01-0.01,0.02-0.01,0.03-0.02c0.09-0.04,0.39-0.43,0.56-0.43c0.21,0,0.21,0.43,0.3,0.56c0.15,0.23,0.41,0.36,0.69,0.35
		c0.17,0.01,0.35-0.05,0.47-0.17c0.38-0.28,0.48-0.81,0.21-1.21C36.66,56.75,35.95,56.4,35.21,56.41"/>
	<path id="Tracé_6" class="st0" d="M34.22,0.31c-0.57-0.03-1.11,0.27-1.38,0.78c-0.52,0.9-0.52,2.76,3.1,9.48
		c1.51,2.84,3.15,5.47,3.79,6.55c-0.99,1.59-3.88,7.24-5.65,11.29c-0.59-0.51-1.21-0.99-1.85-1.42c-0.04,0-0.04-0.04-0.09-0.04
		c-2.2-1.36-4.74-2.06-7.32-2.03c-3.39,0.01-6.69,1.08-9.44,3.06c-1.81-3.96-4.52-9.31-5.52-10.82c0.65-1.03,2.28-3.71,3.79-6.55
		c3.66-6.72,3.62-8.57,3.1-9.48c-0.27-0.51-0.81-0.81-1.38-0.77c-3.32,0-15.6,2.84-15.6,16.8c0,6.2,3.45,9.57,7.45,13.49
		c0.6,0.56,1.2,1.16,1.81,1.81c0.32,0.33,0.84,0.35,1.18,0.03c0.01-0.01,0.02-0.02,0.03-0.03c0.33-0.32,0.35-0.84,0.03-1.18
		c-0.01-0.01-0.02-0.02-0.03-0.03c-0.65-0.65-1.25-1.25-1.85-1.81C4.53,25.64,1.9,22.67,1.9,17.2C1.6,9.17,7.68,2.33,15.69,1.69
		c0.26,1.42-3.32,7.63-6.81,13.27c-0.39-1.08-0.58-2.22-0.56-3.36c0-0.48-0.39-0.86-0.86-0.86c-0.48,0-0.86,0.39-0.86,0.86
		c0,3.84,1.21,5.77,1.42,6.08c2.32,3.66,4.41,7.46,6.25,11.38l-0.04,0.04c-2.27,2.54-3.59,5.78-3.75,9.18
		c-0.02,0.47,0.35,0.88,0.82,0.9h0.04c0.46,0,0.84-0.36,0.86-0.82c0.11-2.19,0.74-4.32,1.85-6.2c0.13,0.49,0.32,0.97,0.56,1.42
		c1.64,2.8,4.14,4.4,8.14,5.17c1.24,0.22,2.49,0.34,3.75,0.35c2.82-0.01,5.62-0.41,8.32-1.21c0.45-0.15,0.69-0.63,0.56-1.08
		c-0.43-1.74-1.45-3.28-2.89-4.35l-0.04-0.04c-0.35-0.3-0.82-0.43-1.12-0.04s-0.22,0.73,0.09,1.16c0.7,0.74,1.25,1.6,1.64,2.54
		c-3.13,1.38-6.61,1.74-9.95,1.04c-3.53-0.6-5.65-1.98-6.98-4.35c-0.56-0.93-0.63-2.07-0.17-3.06l0.04-0.04
		c2.44-2.01,5.54-3.05,8.7-2.93c2.28-0.03,4.53,0.6,6.46,1.81c0.04,0,0.04,0.04,0.09,0.04c3.46,2.13,5.68,5.81,5.95,9.87
		c0.02,0.46,0.4,0.82,0.86,0.82h0.04c0.47-0.04,0.82-0.43,0.82-0.9c-0.22-3.33-1.61-6.48-3.92-8.88c1.86-4.03,3.99-7.94,6.38-11.68
		c0.22-0.3,1.42-2.24,1.42-6.08c0-0.48-0.39-0.86-0.86-0.86c-0.48,0-0.86,0.39-0.86,0.86c0,0,0,0,0,0c0.04,1.15-0.15,2.29-0.56,3.36
		c-3.44-5.64-7.06-11.85-6.76-13.27c8.02,0.62,14.11,7.48,13.79,15.51c0,5.47-2.63,8.49-6.51,12.24c-0.6,0.6-1.21,1.21-1.85,1.81
		c-0.33,0.32-0.35,0.84-0.03,1.18c0.01,0.01,0.02,0.02,0.03,0.03c0.32,0.33,0.84,0.35,1.18,0.03c0.01-0.01,0.02-0.02,0.03-0.03
		c0.6-0.6,1.25-1.21,1.81-1.81c4.01-3.88,7.46-7.28,7.46-13.49C49.81,3.15,37.53,0.31,34.22,0.31"/>
	<path id="Tracé_7" class="st1" d="M37.45,40.17H12.24c-1.66-0.01-3.01,1.33-3.02,2.98c0,0.01,0,0.02,0,0.03v0.08l0.86,3.71
		c0.47,2.76,1.9,4.18,4.31,4.18h4.31c2.36,0.02,4.29-1.88,4.31-4.24c0-0.01,0-0.02,0-0.02l0.43-3.62v-0.09
		c-0.04-0.67,0.47-1.25,1.14-1.29c0.05,0,0.1,0,0.15,0h0.22c0.67-0.04,1.25,0.47,1.29,1.14c0,0.05,0,0.1,0,0.15v0.09l0.43,3.62
		c0.01,2.36,1.92,4.27,4.29,4.27c0.01,0,0.02,0,0.02,0h4.31c2.37,0,3.83-1.42,4.31-4.22l0.86-3.66v-0.09
		c0.01-1.66-1.33-3.01-2.99-3.01C37.47,40.17,37.46,40.17,37.45,40.17 M21.72,43.14l-0.43,3.62v0.09c0.03,1.4-1.08,2.56-2.48,2.58
		c-0.04,0-0.07,0-0.11,0h-4.31c-1.08,0-2.2-0.35-2.58-2.67l-0.43-3.62c0.04-0.69,0.6-1.24,1.29-1.25h8.01
		C21.64,41.89,21.72,42.66,21.72,43.14 M37.88,46.72c-0.39,2.41-1.55,2.71-2.58,2.71h-4.31c-1.4,0.03-2.56-1.08-2.58-2.48
		c0-0.04,0-0.07,0-0.11v-0.09l-0.43-3.62c0-0.43,0.22-1.25,1.03-1.25h8.02c0.69,0.01,1.26,0.56,1.29,1.25L37.88,46.72z"/>
</g>
</svg>
